<?xml version="1.0" encoding="UTF-8" standalone="no"?>
<!DOCTYPE svg PUBLIC "-//W3C//DTD SVG 1.1//EN"
 "http://www.w3.org/Graphics/SVG/1.1/DTD/svg11.dtd">
<!-- Generated by graphviz version 2.40.1 (20161225.0304)
 -->
<!-- Title: G Pages: 1 -->
<svg width="254pt" height="211pt"
 viewBox="0.00 0.00 254.00 211.00" xmlns="http://www.w3.org/2000/svg" xmlns:xlink="http://www.w3.org/1999/xlink">
<g id="graph0" class="graph" transform="scale(1 1) rotate(0) translate(4 207)">
<title>G</title>
<polygon fill="#ffffff" stroke="transparent" points="-4,4 -4,-207 250,-207 250,4 -4,4"/>
<!-- 112783506120 -->
<g id="node1" class="node">
<title>112783506120</title>
<polygon fill="none" stroke="#000000" points="0,-83.5 0,-129.5 246,-129.5 246,-83.5 0,-83.5"/>
<text text-anchor="middle" x="49.5" y="-102.8" font-family="Times,serif" font-size="14.00" fill="#000000">lstm_1: LSTM</text>
<polyline fill="none" stroke="#000000" points="99,-83.5 99,-129.5 "/>
<text text-anchor="middle" x="127" y="-114.3" font-family="Times,serif" font-size="14.00" fill="#000000">input:</text>
<polyline fill="none" stroke="#000000" points="99,-106.5 155,-106.5 "/>
<text text-anchor="middle" x="127" y="-91.3" font-family="Times,serif" font-size="14.00" fill="#000000">output:</text>
<polyline fill="none" stroke="#000000" points="155,-83.5 155,-129.5 "/>
<text text-anchor="middle" x="200.5" y="-114.3" font-family="Times,serif" font-size="14.00" fill="#000000">(None, 5, 34)</text>
<polyline fill="none" stroke="#000000" points="155,-106.5 246,-106.5 "/>
<text text-anchor="middle" x="200.5" y="-91.3" font-family="Times,serif" font-size="14.00" fill="#000000">(None, 100)</text>
</g>
<!-- 112860618032 -->
<g id="node2" class="node">
<title>112860618032</title>
<polygon fill="none" stroke="#000000" points=".5,-.5 .5,-46.5 245.5,-46.5 245.5,-.5 .5,-.5"/>
<text text-anchor="middle" x="53" y="-19.8" font-family="Times,serif" font-size="14.00" fill="#000000">dense_1: Dense</text>
<polyline fill="none" stroke="#000000" points="105.5,-.5 105.5,-46.5 "/>
<text text-anchor="middle" x="133.5" y="-31.3" font-family="Times,serif" font-size="14.00" fill="#000000">input:</text>
<polyline fill="none" stroke="#000000" points="105.5,-23.5 161.5,-23.5 "/>
<text text-anchor="middle" x="133.5" y="-8.3" font-family="Times,serif" font-size="14.00" fill="#000000">output:</text>
<polyline fill="none" stroke="#000000" points="161.5,-.5 161.5,-46.5 "/>
<text text-anchor="middle" x="203.5" y="-31.3" font-family="Times,serif" font-size="14.00" fill="#000000">(None, 100)</text>
<polyline fill="none" stroke="#000000" points="161.5,-23.5 245.5,-23.5 "/>
<text text-anchor="middle" x="203.5" y="-8.3" font-family="Times,serif" font-size="14.00" fill="#000000">(None, 34)</text>
</g>
<!-- 112783506120&#45;&gt;112860618032 -->
<g id="edge2" class="edge">
<title>112783506120&#45;&gt;112860618032</title>
<path fill="none" stroke="#000000" d="M123,-83.3799C123,-75.1745 123,-65.7679 123,-56.8786"/>
<polygon fill="#000000" stroke="#000000" points="126.5001,-56.784 123,-46.784 119.5001,-56.784 126.5001,-56.784"/>
</g>
<!-- 112783507352 -->
<g id="node3" class="node">
<title>112783507352</title>
<polygon fill="none" stroke="#000000" points="72.5,-166.5 72.5,-202.5 173.5,-202.5 173.5,-166.5 72.5,-166.5"/>
<text text-anchor="middle" x="123" y="-180.8" font-family="Times,serif" font-size="14.00" fill="#000000">112783507352</text>
</g>
<!-- 112783507352&#45;&gt;112783506120 -->
<g id="edge1" class="edge">
<title>112783507352&#45;&gt;112783506120</title>
<path fill="none" stroke="#000000" d="M123,-166.4092C123,-158.4308 123,-148.795 123,-139.606"/>
<polygon fill="#000000" stroke="#000000" points="126.5001,-139.5333 123,-129.5333 119.5001,-139.5334 126.5001,-139.5333"/>
</g>
</g>
</svg>
